<svg xmlns="http://www.w3.org/2000/svg" xmlns:xlink="http://www.w3.org/1999/xlink" width="46.413" height="43.207" viewBox="0 0 46.413 43.207">
  <defs>
    <clipPath id="clip">
      <use xlink:href="#fill"/>
    </clipPath>
    <clipPath id="clip-2">
      <use xlink:href="#fill-2"/>
    </clipPath>
    <clipPath id="clip-3">
      <use xlink:href="#fill-3"/>
    </clipPath>
    <clipPath id="clip-4">
      <use xlink:href="#fill-4"/>
    </clipPath>
    <clipPath id="clip-5">
      <use xlink:href="#fill-5"/>
    </clipPath>
  </defs>
  <g id="组_2" data-name="组 2" transform="translate(-40.793 -844.793)">
    <line id="直线_2" data-name="直线 2" x1="22" y2="21" transform="translate(41.5 845.5)" fill="none" stroke="red" stroke-linecap="round" stroke-width="1"/>
    <line id="直线_3" data-name="直线 3" x1="23" y1="21" transform="translate(63.5 845.5)" fill="none" stroke="red" stroke-linecap="round" stroke-width="1"/>
    <line id="直线_4" data-name="直线 4" x2="45" transform="translate(41.5 866.5)" fill="none" stroke="red" stroke-linecap="round" stroke-width="1"/>
    <g id="矩形_1" data-name="矩形 1" transform="translate(45 866)" fill="#fff" stroke="#707070" stroke-width="1">
      <rect width="38" height="22" stroke="none"/>
      <rect x="0.5" y="0.5" width="37" height="21" fill="none"/>
    </g>
    <g id="矩形_2" data-name="矩形 2" transform="translate(45 866)" fill="red" stroke="red" stroke-width="1">
      <rect width="38" height="11" stroke="none"/>
      <rect x="0.5" y="0.5" width="37" height="10" fill="none"/>
    </g>
    <g id="路径_1" data-name="路径 1" transform="translate(45 876)" fill="red">
      <path d="M 13.5 11.5 L 0.5 11.5 L 0.5 0.5 L 13.5 0.5 L 13.5 11.5 Z" stroke="none"/>
      <path d="M 1 1 L 1 11 L 13 11 L 13 1 L 1 1 M 0 0 L 14 0 L 14 12 L 0 12 L 0 0 Z" stroke="none" fill="red"/>
    </g>
    <g id="矩形_4" data-name="矩形 4" transform="translate(69 876)" fill="red" stroke="red" stroke-width="1">
      <rect width="14" height="12" stroke="none"/>
      <rect x="0.5" y="0.5" width="13" height="11" fill="none"/>
    </g>
    <g id="矩形_30" data-name="矩形 30" transform="translate(57 885)" fill="red" stroke="red" stroke-width="1">
      <rect width="14" height="3" stroke="none"/>
      <rect x="0.5" y="0.5" width="13" height="2" fill="none"/>
    </g>
    <g id="矩形_5" data-name="矩形 5" transform="translate(63 846)" fill="red" stroke="red" stroke-width="1">
      <rect width="1" height="20" stroke="none"/>
      <rect x="0.5" y="0.5" height="19" fill="none"/>
    </g>
    <g id="矩形_6" data-name="矩形 6" transform="translate(62 846)" fill="red" stroke="red" stroke-linecap="round" stroke-linejoin="bevel" stroke-width="2">
      <rect id="fill" width="1" height="22" stroke="none"/>
      <path d="M0,1h1M1,0v22M1,21h-1M0,22v-22" fill="none" clip-path="url(#clip)"/>
    </g>
    <g id="矩形_7" data-name="矩形 7" transform="translate(64 846)" fill="red" stroke="red" stroke-linecap="round" stroke-linejoin="bevel" stroke-width="2">
      <rect id="fill-2" width="1" height="22" stroke="none"/>
      <path d="M0,1h1M1,0v22M1,21h-1M0,22v-22" fill="none" clip-path="url(#clip-2)"/>
    </g>
    <g id="矩形_8" data-name="矩形 8" transform="translate(61 847)" fill="red" stroke="red" stroke-linecap="round" stroke-linejoin="bevel" stroke-width="2">
      <rect id="fill-3" width="1" height="22" stroke="none"/>
      <path d="M0,1h1M1,0v22M1,21h-1M0,22v-22" fill="none" clip-path="url(#clip-3)"/>
    </g>
    <g id="矩形_9" data-name="矩形 9" transform="translate(62 846)" fill="red" stroke="red" stroke-linecap="round" stroke-linejoin="bevel" stroke-width="2">
      <rect id="fill-4" width="1" height="22" stroke="none"/>
      <path d="M0,1h1M1,0v22M1,21h-1M0,22v-22" fill="none" clip-path="url(#clip-4)"/>
    </g>
    <g id="矩形_10" data-name="矩形 10" transform="translate(61 847)" fill="red" stroke="red" stroke-linecap="round" stroke-linejoin="bevel" stroke-width="2">
      <rect width="3" height="22" stroke="none"/>
      <rect x="1" y="1" width="1" height="20" fill="none"/>
    </g>
    <g id="矩形_11" data-name="矩形 11" transform="translate(58 850)" fill="red" stroke="red" stroke-linecap="round" stroke-linejoin="bevel" stroke-width="2">
      <rect width="11" height="4" stroke="none"/>
      <rect x="1" y="1" width="9" height="2" fill="none"/>
    </g>
    <g id="矩形_12" data-name="矩形 12" transform="translate(56 851)" fill="red" stroke="red" stroke-linecap="round" stroke-linejoin="bevel" stroke-width="2">
      <rect width="15" height="5" stroke="none"/>
      <rect x="1" y="1" width="13" height="3" fill="none"/>
    </g>
    <g id="矩形_13" data-name="矩形 13" transform="translate(62 846)" fill="red" stroke="red" stroke-linecap="round" stroke-linejoin="bevel" stroke-width="2">
      <rect id="fill-5" width="1" height="22" stroke="none"/>
      <path d="M0,1h1M1,0v22M1,21h-1M0,22v-22" fill="none" clip-path="url(#clip-5)"/>
    </g>
    <g id="矩形_14" data-name="矩形 14" transform="translate(54 853)" fill="red" stroke="red" stroke-linecap="round" stroke-linejoin="bevel" stroke-width="2">
      <rect width="19" height="4" stroke="none"/>
      <rect x="1" y="1" width="17" height="2" fill="none"/>
    </g>
    <g id="矩形_15" data-name="矩形 15" transform="translate(53 854)" fill="red" stroke="red" stroke-linecap="round" stroke-linejoin="bevel" stroke-width="2">
      <rect width="21" height="4" stroke="none"/>
      <rect x="1" y="1" width="19" height="2" fill="none"/>
    </g>
    <g id="矩形_16" data-name="矩形 16" transform="translate(52 855)" fill="red" stroke="red" stroke-linecap="round" stroke-linejoin="bevel" stroke-width="2">
      <rect width="23" height="4" stroke="none"/>
      <rect x="1" y="1" width="21" height="2" fill="none"/>
    </g>
    <g id="矩形_17" data-name="矩形 17" transform="translate(59 849)" fill="red" stroke="red" stroke-linecap="round" stroke-linejoin="bevel" stroke-width="2">
      <rect width="9" height="3" stroke="none"/>
      <rect x="1" y="1" width="7" height="1" fill="none"/>
    </g>
    <g id="矩形_18" data-name="矩形 18" transform="translate(60 848)" fill="red" stroke="red" stroke-linecap="round" stroke-linejoin="bevel" stroke-width="2">
      <rect width="7" height="3" stroke="none"/>
      <rect x="1" y="1" width="5" height="1" fill="none"/>
    </g>
    <g id="矩形_19" data-name="矩形 19" transform="translate(61 847)" fill="red" stroke="red" stroke-linecap="round" stroke-linejoin="bevel" stroke-width="2">
      <rect width="5" height="3" stroke="none"/>
      <rect x="1" y="1" width="3" height="1" fill="none"/>
    </g>
    <g id="矩形_20" data-name="矩形 20" transform="translate(51 856)" fill="red" stroke="red" stroke-linecap="round" stroke-linejoin="bevel" stroke-width="2">
      <rect width="25" height="4" stroke="none"/>
      <rect x="1" y="1" width="23" height="2" fill="none"/>
    </g>
    <g id="矩形_21" data-name="矩形 21" transform="translate(42 865)" fill="red" stroke="red" stroke-linecap="round" stroke-linejoin="bevel" stroke-width="2">
      <rect width="44" height="2" stroke="none"/>
      <rect x="1" y="1" width="42" fill="none"/>
    </g>
    <g id="矩形_22" data-name="矩形 22" transform="translate(43 864)" fill="red" stroke="red" stroke-linecap="round" stroke-linejoin="bevel" stroke-width="2">
      <rect width="42" height="2" stroke="none"/>
      <rect x="1" y="1" width="40" fill="none"/>
    </g>
    <g id="矩形_23" data-name="矩形 23" transform="translate(44 863)" fill="red" stroke="red" stroke-linecap="round" stroke-linejoin="bevel" stroke-width="2">
      <rect width="39" height="2" stroke="none"/>
      <rect x="1" y="1" width="37" fill="none"/>
    </g>
    <g id="矩形_24" data-name="矩形 24" transform="translate(45 862)" fill="red" stroke="red" stroke-linecap="round" stroke-linejoin="bevel" stroke-width="2">
      <rect width="37" height="2" stroke="none"/>
      <rect x="1" y="1" width="35" fill="none"/>
    </g>
    <g id="矩形_25" data-name="矩形 25" transform="translate(46 861)" fill="red" stroke="red" stroke-linecap="round" stroke-linejoin="bevel" stroke-width="2">
      <rect width="35" height="2" stroke="none"/>
      <rect x="1" y="1" width="33" fill="none"/>
    </g>
    <g id="矩形_26" data-name="矩形 26" transform="translate(48 860)" fill="red" stroke="red" stroke-linecap="round" stroke-linejoin="bevel" stroke-width="2">
      <rect width="32" height="2" stroke="none"/>
      <rect x="1" y="1" width="30" fill="none"/>
    </g>
    <g id="矩形_27" data-name="矩形 27" transform="translate(49 859)" fill="red" stroke="red" stroke-linecap="round" stroke-linejoin="bevel" stroke-width="2">
      <rect width="30" height="2" stroke="none"/>
      <rect x="1" y="1" width="28" fill="none"/>
    </g>
    <g id="矩形_28" data-name="矩形 28" transform="translate(50 858)" fill="red" stroke="red" stroke-linecap="round" stroke-linejoin="bevel" stroke-width="2">
      <rect width="28" height="3" stroke="none"/>
      <rect x="1" y="1" width="26" height="1" fill="none"/>
    </g>
    <g id="矩形_29" data-name="矩形 29" transform="translate(52 857)" fill="red" stroke="red" stroke-linecap="round" stroke-linejoin="bevel" stroke-width="2">
      <rect width="25" height="2" stroke="none"/>
      <rect x="1" y="1" width="23" fill="none"/>
    </g>
  </g>
</svg>
