<svg xmlns="http://www.w3.org/2000/svg" width="30.079" height="34.605" viewBox="0 0 30.079 34.605">
  <g id="组_3" data-name="组 3" transform="translate(-176.512 -839.644)">
    <g id="路径_5" data-name="路径 5" transform="translate(176.512 851)" fill="#fff">
      <path d="M 28.57865905761719 21.74908256530762 L 1.499999523162842 21.74908256530762 L 1.499999523162842 1.500002264976501 L 28.57865905761719 1.500002264976501 L 28.57865905761719 21.74908256530762 Z" stroke="none"/>
      <path d="M 3 3.000001907348633 L 3 20.24908256530762 L 27.07865905761719 20.24908256530762 L 27.07865905761719 3.000001907348633 L 3 3.000001907348633 M 0 1.9073486328125e-06 L 30.07865905761719 1.9073486328125e-06 L 30.07865905761719 23.24908256530762 L 0 23.24908256530762 L 0 1.9073486328125e-06 Z" stroke="none" fill="#757575"/>
    </g>
    <line id="直线_5" data-name="直线 5" y2="22" transform="translate(191.5 851.5)" fill="none" stroke="#757575" stroke-width="3"/>
    <path id="路径_2" data-name="路径 2" d="M219.01,847.5s-8.3-1.594-7.874-7.1,4.691-3.019,6.255.3A18.647,18.647,0,0,1,219.01,847.5Z" transform="translate(-28 4)" fill="none" stroke="#757575" stroke-width="3"/>
    <path id="路径_4" data-name="路径 4" d="M7.9,0S-.411,1.581.016,7.05s4.7,3,6.265-.3A18.358,18.358,0,0,0,7.9,0Z" transform="translate(199.867 851.421) rotate(180)" fill="none" stroke="#757575" stroke-width="3"/>
  </g>
</svg>
