<?xml version="1.0" standalone="no"?><!DOCTYPE svg PUBLIC "-//W3C//DTD SVG 1.1//EN" "http://www.w3.org/Graphics/SVG/1.1/DTD/svg11.dtd"><svg t="1561687424334" class="icon" viewBox="0 0 1024 1024" version="1.1" xmlns="http://www.w3.org/2000/svg" p-id="1867" xmlns:xlink="http://www.w3.org/1999/xlink" width="200" height="200"><defs><style type="text/css"></style></defs><path d="M246.784 907.648 246.784 1024l691.904 0L938.688 162.88l-115.328 0 0 744.704L246.784 907.584z" p-id="1868"></path><path d="M223.744 162.88l253.696 0 0 46.592L223.744 209.472 223.744 162.88zM223.744 325.824l369.024 0 0 46.592L223.744 372.416 223.744 325.824zM223.744 488.704l369.024 0 0 46.592L223.744 535.296 223.744 488.704zM223.744 674.88l369.024 0 0 46.592L223.744 721.472 223.744 674.88zM85.312 0l0 861.12 691.904 0L777.216 0 85.312 0z" p-id="1869"></path></svg>